REM DIRINDEX 1\2,1\3,1\4,1\5
REM DIRNAME "folder01","folder02","folder03","folder04","folder05"
TITLE ""
FILE "P1Q_t_0910-0919.mp3" MP3
  TRACK 01 AUDIO
    TITLE "3:cjc173_3680"
    INDEX 01 00:00:00
  TRACK 02 AUDIO
    TITLE "0:"
    INDEX 01 00:01:06
  TRACK 03 AUDIO
    TITLE "4:cjc173_3681"
    INDEX 01 00:01:25
  TRACK 04 AUDIO
    TITLE "0:"
    INDEX 01 00:04:45
  TRACK 05 AUDIO
    TITLE "5:cjc173_3682"
    INDEX 01 00:04:63
  TRACK 06 AUDIO
    TITLE "0:"
    INDEX 01 00:09:31
  TRACK 07 AUDIO
    TITLE "3:cjc173_3683"
    INDEX 01 00:10:03
  TRACK 08 AUDIO
    TITLE "0:"
    INDEX 01 00:11:30
  TRACK 09 AUDIO
    TITLE "4:cjc173_3684"
    INDEX 01 00:11:51
  TRACK 10 AUDIO
    TITLE "0:"
    INDEX 01 00:13:56
  TRACK 11 AUDIO
    TITLE "5:cjc173_3685"
    INDEX 01 00:14:07
  TRACK 12 AUDIO
    TITLE "0:"
    INDEX 01 00:19:15
  TRACK 13 AUDIO
    TITLE "3:cjc173_3686"
    INDEX 01 00:19:70
  TRACK 14 AUDIO
    TITLE "0:"
    INDEX 01 00:20:74
  TRACK 15 AUDIO
    TITLE "4:cjc173_3687"
    INDEX 01 00:21:20
  TRACK 16 AUDIO
    TITLE "0:"
    INDEX 01 00:26:59
  TRACK 17 AUDIO
    TITLE "5:cjc173_3688"
    INDEX 01 00:27:03
  TRACK 18 AUDIO
    TITLE "0:"
    INDEX 01 00:31:62
  TRACK 19 AUDIO
    TITLE "3:cjc173_3689"
    INDEX 01 00:32:34
  TRACK 20 AUDIO
    TITLE "0:"
    INDEX 01 00:33:51
  TRACK 21 AUDIO
    TITLE "4:cjc173_3690"
    INDEX 01 00:33:70
  TRACK 22 AUDIO
    TITLE "0:"
    INDEX 01 00:37:58
  TRACK 23 AUDIO
    TITLE "5:cjc173_3691"
    INDEX 01 00:38:03
  TRACK 24 AUDIO
    TITLE "0:"
    INDEX 01 00:42:22
  TRACK 25 AUDIO
    TITLE "3:cjc173_3692"
    INDEX 01 00:42:69
  TRACK 26 AUDIO
    TITLE "0:"
    INDEX 01 00:44:23
  TRACK 27 AUDIO
    TITLE "4:cjc173_3693"
    INDEX 01 00:44:45
  TRACK 28 AUDIO
    TITLE "0:"
    INDEX 01 00:46:24
  TRACK 29 AUDIO
    TITLE "5:cjc173_3694"
    INDEX 01 00:46:46
  TRACK 30 AUDIO
    TITLE "0:"
    INDEX 01 00:50:18
  TRACK 31 AUDIO
    TITLE "3:cjc173_3695"
    INDEX 01 00:50:65
  TRACK 32 AUDIO
    TITLE "0:"
    INDEX 01 00:51:72
  TRACK 33 AUDIO
    TITLE "4:cjc173_3696"
    INDEX 01 00:52:23
  TRACK 34 AUDIO
    TITLE "0:"
    INDEX 01 00:56:46
  TRACK 35 AUDIO
    TITLE "5:cjc173_3697"
    INDEX 01 00:56:68
  TRACK 36 AUDIO
    TITLE "0:"
    INDEX 01 01:00:63
  TRACK 37 AUDIO
    TITLE "3:cjc173_3698"
    INDEX 01 01:01:37
  TRACK 38 AUDIO
    TITLE "0:"
    INDEX 01 01:02:58
  TRACK 39 AUDIO
    TITLE "4:cjc173_3699"
    INDEX 01 01:03:05
  TRACK 40 AUDIO
    TITLE "0:"
    INDEX 01 01:06:11
  TRACK 41 AUDIO
    TITLE "5:cjc173_3700"
    INDEX 01 01:06:31
  TRACK 42 AUDIO
    TITLE "0:"
    INDEX 01 01:10:46
  TRACK 43 AUDIO
    TITLE "3:cjc173_3701"
    INDEX 01 01:11:16
  TRACK 44 AUDIO
    TITLE "0:"
    INDEX 01 01:12:25
  TRACK 45 AUDIO
    TITLE "4:cjc173_3702"
    INDEX 01 01:12:45
  TRACK 46 AUDIO
    TITLE "0:"
    INDEX 01 01:15:10
  TRACK 47 AUDIO
    TITLE "5:cjc173_3703"
    INDEX 01 01:15:30
  TRACK 48 AUDIO
    TITLE "0:"
    INDEX 01 01:20:23
  TRACK 49 AUDIO
    TITLE "3:cjc173_3704"
    INDEX 01 01:20:70
  TRACK 50 AUDIO
    TITLE "0:"
    INDEX 01 01:22:08
  TRACK 51 AUDIO
    TITLE "4:cjc173_3705"
    INDEX 01 01:22:30
  TRACK 52 AUDIO
    TITLE "0:"
    INDEX 01 01:23:61
  TRACK 53 AUDIO
    TITLE "5:cjc173_3706"
    INDEX 01 01:24:05
  TRACK 54 AUDIO
    TITLE "0:"
    INDEX 01 01:28:75
  TRACK 55 AUDIO
    TITLE "3:cjc173_3707"
    INDEX 01 01:29:45
  TRACK 56 AUDIO
    TITLE "0:"
    INDEX 01 01:30:63
  TRACK 57 AUDIO
    TITLE "4:cjc173_3708"
    INDEX 01 01:31:09
  TRACK 58 AUDIO
    TITLE "0:"
    INDEX 01 01:32:65
  TRACK 59 AUDIO
    TITLE "5:cjc173_3709"
    INDEX 01 01:33:14
  TRACK 60 AUDIO
    TITLE "0:"
    INDEX 01 01:36:63
